<svg width="512" height="512" viewBox="0 0 512 512" fill="none" xmlns="http://www.w3.org/2000/svg">
<rect width="512" height="512" fill="black"/>
<path d="M21.2229 256L256 21.223L490.777 256L256 490.777L21.2229 256Z" fill="black"/>
<path fill-rule="evenodd" clip-rule="evenodd" d="M256 35.0574L35.0573 256L256 476.943L476.943 256L256 35.0574ZM21.2229 256L256 490.777L490.777 256L256 21.223L21.2229 256Z" fill="black"/>
<path d="M483.011 260.314L254.519 488.806L217.02 451.306L445.512 222.815L483.011 260.314Z" fill="#030303"/>
<path fill-rule="evenodd" clip-rule="evenodd" d="M254.519 484.194L478.399 260.314L445.512 227.426L221.631 451.306L254.519 484.194ZM483.011 260.314L445.512 222.815L217.02 451.306L254.519 488.806L483.011 260.314Z" fill="black"/>
<path d="M113.045 265.63L295.198 447.783L256 486.98L73.8478 304.828L113.045 265.63Z" fill="#30D6E0"/>
<path d="M292.741 62.7185L62.1322 293.328L24.6331 255.829L255.242 25.2194L292.741 62.7185Z" fill="#030303"/>
<path d="M321.127 322.736L188.213 322.736L254.67 389.193L321.127 322.736Z" fill="#FF5454"/>
<path d="M387.7 256.164L254.786 256.164L321.243 322.621L387.7 256.164Z" fill="#FF5454"/>
<path d="M189.552 188.457L322.466 188.457L256.009 122L189.552 188.457Z" fill="#30D6E0"/>
<path d="M121.641 255.925L254.555 255.925L188.098 189.467L121.641 255.925Z" fill="#30D6E0"/>
<path d="M296.85 408.877C296.214 408.242 295.492 407.973 294.682 408.072C293.882 408.163 292.726 408.584 291.215 409.336C289.704 410.087 288.412 410.644 287.339 411.007C283.854 412.196 281.109 411.788 279.103 409.781C278.104 408.782 277.514 407.614 277.332 406.277C277.15 404.923 277.382 403.503 278.026 402.016C278.661 400.522 279.644 399.11 280.973 397.781C282.269 396.485 283.66 395.556 285.147 394.995C286.641 394.425 288.102 394.285 289.531 394.573C290.951 394.854 292.21 395.544 293.308 396.642L288.973 400.976C288.238 400.241 287.442 399.899 286.583 399.948C285.733 399.99 284.924 400.394 284.156 401.162C283.38 401.938 282.938 402.726 282.831 403.527C282.723 404.312 282.934 404.968 283.462 405.496C283.925 405.959 284.593 406.132 285.469 406.017C286.335 405.893 287.594 405.41 289.246 404.568C290.889 403.717 292.342 403.123 293.605 402.784C296.676 401.959 299.199 402.532 301.172 404.506C302.749 406.083 303.393 407.915 303.104 410.004C302.815 412.093 301.634 414.174 299.562 416.246C298.1 417.707 296.515 418.772 294.806 419.441C293.097 420.093 291.487 420.267 289.976 419.961C288.466 419.639 287.116 418.884 285.927 417.695L290.286 413.336C291.252 414.302 292.214 414.768 293.172 414.735C294.129 414.686 295.17 414.099 296.292 412.977C297.011 412.258 297.423 411.54 297.531 410.822C297.638 410.087 297.411 409.439 296.85 408.877Z" fill="#FF5454"/>
<path d="M309.687 385.216L305.179 374.07L309.873 369.376L315.619 386.739L322.096 393.216L317.687 397.625L311.211 391.148L293.86 385.389L298.529 380.72L309.687 385.216Z" fill="#FF5454"/>
<path d="M321.967 357.282L338.538 365.802L330.005 349.245L335.726 343.523L353.758 361.554L349.399 365.914L345.188 361.703L336.99 352.663L345.46 369.852L342.587 372.725L325.373 364.254L334.426 372.465L338.637 376.676L334.29 381.023L316.258 362.991L321.967 357.282Z" fill="#FF5454"/>
<path d="M349.282 329.967L365.852 338.488L357.32 321.93L363.041 316.208L381.073 334.24L376.713 338.599L372.503 334.388L364.304 325.348L372.775 342.537L369.902 345.41L352.688 336.939L361.741 345.15L365.952 349.361L361.605 353.708L343.573 335.676L349.282 329.967Z" fill="#FF5454"/>
<path d="M392.461 307.569L385.625 314.405L389.923 318.702L397.997 310.628L401.341 313.972L388.919 326.393L370.888 308.361L383.334 295.915L386.69 299.271L378.591 307.371L382.393 311.173L389.229 304.337L392.461 307.569Z" fill="#FF5454"/>
<path d="M407.912 278.05L402.5 283.462L417.175 298.137L412.829 302.484L398.153 287.809L392.84 293.121L389.484 289.765L404.556 274.694L407.912 278.05Z" fill="#FF5454"/>
<path d="M429.84 272.742L427.487 275.095L433.852 281.46L429.505 285.807L411.474 267.776L418.57 260.679C420.708 258.541 422.855 257.344 425.01 257.088C427.165 256.832 429.109 257.571 430.843 259.305C432.098 260.56 432.882 261.856 433.196 263.194C433.518 264.523 433.394 265.984 432.824 267.578L443.859 271.082L444.044 271.268L439.388 275.925L429.84 272.742ZM424.13 271.739L426.88 268.989C427.705 268.164 428.11 267.33 428.093 266.488C428.077 265.629 427.681 264.812 426.905 264.036C426.128 263.26 425.311 262.863 424.452 262.847C423.586 262.822 422.743 263.218 421.926 264.036L419.177 266.785L424.13 271.739Z" fill="#FF5454"/>
<path d="M446.925 247.978L442.417 236.832L447.111 232.139L452.857 249.501L459.334 255.978L454.925 260.387L448.448 253.91L431.098 248.152L435.767 243.483L446.925 247.978Z" fill="#FF5454"/>
<path d="M225.188 111.622C224.552 110.986 224.284 110.263 224.383 109.454C224.474 108.653 224.895 107.498 225.646 105.987C226.397 104.476 226.955 103.184 227.318 102.11C228.507 98.6263 228.098 95.8811 226.092 93.8749C225.093 92.8759 223.925 92.2855 222.587 92.1039C221.233 91.9223 219.813 92.1534 218.327 92.7974C216.832 93.4331 215.421 94.4156 214.091 95.7449C212.795 97.0411 211.866 98.4323 211.305 99.9184C210.735 101.413 210.595 102.874 210.884 104.302C211.165 105.722 211.854 106.982 212.952 108.08L217.287 103.745C216.552 103.01 216.209 102.214 216.259 101.355C216.3 100.505 216.705 99.6955 217.472 98.9276C218.248 98.1516 219.037 97.7099 219.838 97.6025C220.622 97.4952 221.278 97.7057 221.807 98.2341C222.269 98.6965 222.443 99.3652 222.327 100.24C222.203 101.107 221.72 102.366 220.878 104.018C220.028 105.661 219.433 107.114 219.095 108.377C218.269 111.448 218.843 113.97 220.816 115.944C222.393 117.521 224.226 118.165 226.315 117.876C228.404 117.587 230.484 116.406 232.556 114.334C234.018 112.872 235.083 111.287 235.752 109.578C236.404 107.869 236.577 106.259 236.272 104.748C235.95 103.237 235.194 101.887 234.005 100.699L229.646 105.058C230.612 106.024 231.079 106.986 231.046 107.943C230.996 108.901 230.41 109.941 229.287 111.064C228.569 111.783 227.85 112.195 227.132 112.303C226.397 112.41 225.749 112.183 225.188 111.622Z" fill="#30D6E0"/>
<path d="M201.526 124.459L190.38 119.951L185.687 124.645L203.05 130.391L209.527 136.868L213.935 132.459L207.458 125.982L201.7 108.632L197.031 113.301L201.526 124.459Z" fill="#30D6E0"/>
<path d="M173.592 136.739L182.113 153.31L165.555 144.777L159.833 150.498L177.865 168.53L182.224 164.171L178.014 159.96L168.973 151.761L186.162 160.232L189.036 157.359L180.565 140.145L188.775 149.198L192.986 153.409L197.333 149.062L179.301 131.03L173.592 136.739Z" fill="#30D6E0"/>
<path d="M146.278 164.054L154.798 180.624L138.24 172.092L132.519 177.813L150.55 195.845L154.909 191.485L150.699 187.275L141.658 179.076L158.848 187.547L161.721 184.674L153.25 167.46L161.461 176.513L165.671 180.723L170.018 176.377L151.987 158.345L146.278 164.054Z" fill="#30D6E0"/>
<path d="M123.879 207.233L130.715 200.397L135.013 204.694L126.938 212.769L130.282 216.113L142.703 203.691L124.672 185.66L112.226 198.106L115.582 201.462L123.681 193.363L127.483 197.165L120.647 204.001L123.879 207.233Z" fill="#30D6E0"/>
<path d="M94.3601 222.684L99.7721 217.272L114.447 231.947L118.794 227.6L104.119 212.925L109.432 207.612L106.076 204.256L91.004 219.328L94.3601 222.684Z" fill="#30D6E0"/>
<path d="M89.0522 244.611L91.4052 242.258L97.7708 248.624L102.118 244.277L84.0861 226.246L76.9899 233.342C74.8516 235.48 73.6544 237.627 73.3985 239.782C73.1426 241.936 73.8815 243.881 75.6153 245.615C76.8702 246.87 78.1664 247.654 79.5039 247.968C80.8332 248.29 82.2945 248.166 83.888 247.596L87.3927 258.63L87.5785 258.816L92.235 254.16L89.0522 244.611ZM88.0491 238.902L85.2998 241.652C84.4742 242.477 83.6403 242.882 82.7982 242.865C81.9395 242.849 81.1222 242.452 80.3461 241.676C79.57 240.9 79.1737 240.083 79.1572 239.224C79.1324 238.357 79.5287 237.515 80.3461 236.698L83.0954 233.949L88.0491 238.902Z" fill="#30D6E0"/>
<path d="M64.2886 261.697L53.1428 257.189L48.4491 261.883L65.8119 267.629L72.2889 274.106L76.6977 269.697L70.2207 263.22L64.462 245.87L59.7931 250.539L64.2886 261.697Z" fill="#30D6E0"/>
<path d="M109.413 307.75C110.049 307.115 110.317 306.392 110.218 305.583C110.127 304.782 109.706 303.626 108.955 302.115C108.204 300.605 107.646 299.312 107.283 298.239C106.094 294.755 106.503 292.01 108.509 290.004C109.508 289.005 110.676 288.414 112.014 288.233C113.368 288.051 114.788 288.282 116.274 288.926C117.768 289.562 119.18 290.544 120.509 291.874C121.806 293.17 122.734 294.561 123.296 296.047C123.866 297.542 124.006 299.003 123.717 300.431C123.436 301.851 122.747 303.11 121.649 304.208L117.314 299.874C118.049 299.139 118.392 298.342 118.342 297.484C118.301 296.633 117.896 295.824 117.128 295.056C116.352 294.28 115.564 293.839 114.763 293.731C113.979 293.624 113.322 293.835 112.794 294.363C112.332 294.825 112.158 295.494 112.274 296.369C112.398 297.236 112.881 298.495 113.723 300.146C114.573 301.789 115.168 303.242 115.506 304.506C116.332 307.577 115.758 310.099 113.785 312.072C112.208 313.649 110.375 314.293 108.286 314.004C106.197 313.715 104.117 312.535 102.044 310.462C100.583 309.001 99.518 307.416 98.8493 305.707C98.197 303.998 98.0237 302.388 98.3291 300.877C98.6511 299.366 99.4066 298.016 100.595 296.827L104.955 301.187C103.989 302.153 103.522 303.114 103.555 304.072C103.605 305.03 104.191 306.07 105.314 307.193C106.032 307.911 106.75 308.324 107.469 308.431C108.204 308.539 108.852 308.312 109.413 307.75Z" fill="white"/>
<path d="M148.07 338.705C146.403 340.372 144.669 341.553 142.869 342.247C141.077 342.932 139.319 343.163 137.593 342.94L138.2 348.154L133.234 347.745L132.479 340.748C132.066 340.434 131.678 340.096 131.314 339.732C129.779 338.197 128.772 336.48 128.293 334.581C127.814 332.682 127.901 330.737 128.553 328.748C129.213 326.766 130.39 324.904 132.082 323.162L133.036 322.209C134.811 320.434 136.693 319.195 138.683 318.493C140.681 317.8 142.646 317.684 144.578 318.147C146.518 318.617 148.264 319.629 149.817 321.181C151.344 322.708 152.343 324.434 152.814 326.357C153.284 328.281 153.177 330.246 152.492 332.252C151.823 334.259 150.626 336.133 148.9 337.875L148.07 338.705ZM144.405 333.528C146.196 331.736 147.253 330.077 147.575 328.549C147.914 327.022 147.525 325.701 146.411 324.587C145.263 323.439 143.942 323.034 142.448 323.373C140.954 323.711 139.319 324.76 137.544 326.518L136.714 327.348C134.939 329.123 133.87 330.779 133.506 332.314C133.151 333.842 133.552 335.183 134.708 336.339C135.814 337.446 137.127 337.825 138.646 337.479C140.173 337.14 141.816 336.1 143.575 334.358L144.405 333.528Z" fill="white"/>
<path d="M186.752 358.612L174.95 370.414C173.613 371.752 172.168 372.627 170.616 373.04C169.072 373.444 167.511 373.37 165.934 372.817C164.358 372.264 162.843 371.261 161.389 369.807C159.193 367.611 158.033 365.312 157.909 362.909C157.786 360.507 158.702 358.302 160.659 356.296L172.548 344.407L176.919 348.779L164.944 360.755C163.02 362.777 162.95 364.68 164.733 366.464C165.633 367.364 166.562 367.797 167.52 367.764C168.477 367.731 169.514 367.157 170.628 366.043L182.406 354.265L186.752 358.612Z" fill="white"/>
<path d="M197.719 398.904L191.762 392.947L187.353 395.276L182.709 390.631L207.353 379.213L211.44 383.3L200.072 407.994L195.403 403.325L197.719 398.904ZM196.158 390.631L200.034 394.508L204.344 386.309L196.158 390.631Z" fill="white"/>
<path d="M227.397 422.589L225.044 420.236L218.679 426.601L214.332 422.254L232.363 404.223L239.46 411.319C241.598 413.457 242.795 415.604 243.051 417.759C243.307 419.914 242.568 421.858 240.834 423.592C239.579 424.847 238.283 425.631 236.945 425.945C235.616 426.267 234.155 426.143 232.561 425.573L229.057 436.608L228.871 436.794L224.214 432.137L227.397 422.589ZM228.4 416.88L231.15 419.629C231.975 420.455 232.809 420.859 233.651 420.843C234.51 420.826 235.327 420.43 236.103 419.654C236.879 418.878 237.276 418.06 237.292 417.202C237.317 416.335 236.921 415.493 236.103 414.675L233.354 411.926L228.4 416.88Z" fill="white"/>
<path d="M262.636 455.277L255.8 448.441L251.503 452.738L259.578 460.813L256.234 464.156L243.812 451.735L261.844 433.703L274.29 446.15L270.934 449.506L262.835 441.407L259.033 445.208L265.869 452.045L262.636 455.277Z" fill="white"/>
<path d="M256 25.8348L438.153 207.987L401.261 244.879L219.109 62.7265L256 25.8348Z" fill="#FF5454"/>
<path d="M394.881 210.466C395.516 209.831 396.239 209.562 397.048 209.661C397.849 209.752 399.005 210.173 400.515 210.925C402.026 211.676 403.318 212.233 404.392 212.597C407.876 213.785 410.621 213.377 412.627 211.37C413.626 210.371 414.217 209.203 414.398 207.866C414.58 206.512 414.349 205.092 413.705 203.606C413.069 202.111 412.086 200.699 410.757 199.37C409.461 198.074 408.07 197.145 406.584 196.584C405.089 196.014 403.628 195.874 402.2 196.163C400.78 196.443 399.521 197.133 398.422 198.231L402.757 202.565C403.492 201.83 404.288 201.488 405.147 201.537C405.997 201.579 406.807 201.983 407.574 202.751C408.351 203.527 408.792 204.316 408.9 205.116C409.007 205.901 408.796 206.557 408.268 207.086C407.806 207.548 407.137 207.721 406.262 207.606C405.395 207.482 404.136 206.999 402.484 206.157C400.842 205.306 399.388 204.712 398.125 204.373C395.054 203.548 392.532 204.122 390.558 206.095C388.981 207.672 388.338 209.505 388.626 211.593C388.915 213.682 390.096 215.763 392.168 217.835C393.63 219.296 395.215 220.361 396.924 221.03C398.633 221.682 400.243 221.856 401.754 221.55C403.265 221.228 404.615 220.473 405.803 219.284L401.444 214.925C400.478 215.891 399.516 216.357 398.559 216.324C397.601 216.275 396.561 215.688 395.438 214.566C394.72 213.847 394.307 213.129 394.199 212.411C394.092 211.676 394.319 211.028 394.881 210.466Z" fill="white"/>
<path d="M363.926 171.809C362.259 173.477 361.078 175.211 360.384 177.011C359.699 178.802 359.468 180.561 359.691 182.286L354.477 181.679L354.886 186.646L361.883 187.401C362.197 187.814 362.535 188.202 362.898 188.565C364.434 190.101 366.151 191.108 368.05 191.587C369.949 192.066 371.893 191.979 373.883 191.327C375.865 190.666 377.726 189.49 379.469 187.797L380.422 186.844C382.197 185.069 383.436 183.186 384.137 181.196C384.831 179.198 384.947 177.233 384.484 175.301C384.014 173.361 383.002 171.615 381.45 170.063C379.923 168.536 378.197 167.537 376.273 167.066C374.35 166.595 372.385 166.703 370.378 167.388C368.372 168.057 366.498 169.254 364.756 170.979L363.926 171.809ZM369.103 175.475C370.894 173.683 372.554 172.626 374.081 172.304C375.609 171.966 376.93 172.354 378.044 173.469C379.192 174.616 379.597 175.937 379.258 177.432C378.919 178.926 377.871 180.561 376.112 182.336L375.283 183.166C373.508 184.941 371.852 186.01 370.317 186.373C368.789 186.728 367.448 186.328 366.292 185.172C365.185 184.065 364.806 182.753 365.152 181.234C365.491 179.706 366.531 178.063 368.273 176.305L369.103 175.475Z" fill="white"/>
<path d="M344.019 133.127L332.217 144.929C330.879 146.267 330.004 147.712 329.591 149.264C329.187 150.808 329.261 152.368 329.814 153.945C330.367 155.522 331.37 157.037 332.823 158.49C335.02 160.686 337.319 161.846 339.721 161.97C342.124 162.094 344.328 161.177 346.335 159.221L358.224 147.332L353.852 142.96L341.876 154.936C339.854 156.859 337.95 156.93 336.167 155.146C335.267 154.246 334.834 153.318 334.867 152.36C334.9 151.402 335.474 150.366 336.588 149.251L348.366 137.474L344.019 133.127Z" fill="white"/>
<path d="M303.727 122.161L309.684 128.118L307.355 132.527L311.999 137.171L323.418 112.526L319.331 108.439L294.637 119.808L299.306 124.477L303.727 122.161ZM311.999 123.721L308.123 119.845L316.322 115.535L311.999 123.721Z" fill="white"/>
<path d="M280.042 92.4823L282.395 94.8353L276.03 101.201L280.376 105.548L298.408 87.5162L291.312 80.42C289.173 78.2817 287.027 77.0845 284.872 76.8286C282.717 76.5726 280.773 77.3116 279.039 79.0454C277.784 80.3003 277 81.5965 276.686 82.934C276.364 84.2633 276.488 85.7246 277.057 87.3181L266.023 90.8228L265.837 91.0086L270.494 95.6651L280.042 92.4823ZM285.751 91.4792L283.002 88.7299C282.176 87.9043 281.772 87.0704 281.788 86.2282C281.805 85.3696 282.201 84.5522 282.977 83.7762C283.753 83.0001 284.571 82.6038 285.429 82.5873C286.296 82.5625 287.138 82.9588 287.956 83.7762L290.705 86.5255L285.751 91.4792Z" fill="white"/>
<path d="M247.354 57.2431L254.19 64.0792L249.893 68.3765L241.818 60.302L238.474 63.6457L250.896 76.0672L268.927 58.0357L256.481 45.5895L253.125 48.9456L261.224 57.0449L257.422 60.8469L250.586 54.0108L247.354 57.2431Z" fill="white"/>
<path fill-rule="evenodd" clip-rule="evenodd" d="M256 30.4459L30.4458 256L256 481.554L481.554 256L256 30.4459ZM21.2229 256L256 490.777L490.777 256L256 21.223L21.2229 256Z" fill="black"/>
<path fill-rule="evenodd" clip-rule="evenodd" d="M12 256L256 12.0001L500 256L256 500L12 256ZM21.2229 256L256 490.777L490.777 256L256 21.223L21.2229 256Z" fill="white"/>
</svg>
