<svg width="47" height="47" viewBox="0 0 47 47" fill="none" xmlns="http://www.w3.org/2000/svg">
<path d="M23.3818 0L46.763 23.3812L23.3818 46.7624L0.000628686 23.3812L23.3818 0Z" fill="#030303"/>
<path fill-rule="evenodd" clip-rule="evenodd" d="M45.4819 23.3812L23.3818 1.28116L1.28179 23.3812L23.3818 45.4813L45.4819 23.3812ZM23.3818 0L0.000628686 23.3812L23.3818 46.7624L46.763 23.3812L23.3818 0Z" fill="white"/>
<path d="M31.0294 30.732L16.0028 30.732L23.5161 38.2453L31.0294 30.732Z" fill="white"/>
<path d="M38.5558 23.2056L23.5292 23.2056L31.0425 30.7189L38.5558 23.2056Z" fill="white"/>
<path d="M15.9173 15.5509L30.944 15.5509L23.4307 8.03756L15.9173 15.5509Z" fill="white"/>
<path d="M8.47545 23.1784L23.5021 23.1784L15.9888 15.6651L8.47545 23.1784Z" fill="white"/>
</svg>
