<svg width="404" height="460" viewBox="0 0 404 460" fill="none" xmlns="http://www.w3.org/2000/svg">
<path d="M7.63525 202L202 7.63535L396.364 202L202 396.364L7.63525 202Z" fill="black"/>
<path fill-rule="evenodd" clip-rule="evenodd" d="M202 19.0884L19.0883 202L202 384.911L384.911 202L202 19.0884ZM7.63525 202L202 396.364L396.364 202L202 7.63535L7.63525 202Z" fill="black"/>
<path d="M389.935 205.571L200.774 394.732L169.73 363.688L358.891 174.527L389.935 205.571Z" fill="#030303"/>
<path fill-rule="evenodd" clip-rule="evenodd" d="M200.774 390.914L386.117 205.571L358.891 178.345L173.547 363.688L200.774 390.914ZM389.935 205.571L358.891 174.527L169.73 363.688L200.774 394.732L389.935 205.571Z" fill="black"/>
<path d="M83.6523 209.973L234.451 360.771L202 393.221L51.2021 242.423L83.6523 209.973Z" fill="#30D6E0"/>
<path d="M232.417 41.988L41.5025 232.902L10.4582 201.858L201.372 10.9437L232.417 41.988Z" fill="#030303"/>
<path d="M255.916 257.248L145.881 257.248L200.898 312.266L255.916 257.248Z" fill="#FF5454"/>
<path d="M311.031 202.135L200.995 202.135L256.013 257.153L311.031 202.135Z" fill="#FF5454"/>
<path d="M146.989 146.083L257.024 146.083L202.006 91.0654L146.989 146.083Z" fill="#30D6E0"/>
<path d="M90.7668 201.937L200.803 201.937L145.785 146.92L90.7668 201.937Z" fill="#30D6E0"/>
<path d="M235.818 328.562C235.292 328.036 234.694 327.814 234.024 327.896C233.361 327.971 232.404 328.319 231.153 328.941C229.903 329.563 228.833 330.025 227.944 330.325C225.06 331.31 222.787 330.971 221.126 329.31C220.299 328.483 219.811 327.516 219.66 326.409C219.51 325.288 219.701 324.112 220.234 322.882C220.761 321.645 221.574 320.476 222.674 319.376C223.748 318.303 224.899 317.534 226.13 317.069C227.367 316.597 228.577 316.481 229.759 316.72C230.935 316.953 231.977 317.523 232.886 318.432L229.298 322.021C228.689 321.413 228.03 321.129 227.319 321.17C226.615 321.204 225.945 321.539 225.309 322.175C224.667 322.817 224.301 323.47 224.212 324.133C224.124 324.782 224.298 325.326 224.735 325.763C225.118 326.146 225.672 326.289 226.396 326.194C227.114 326.091 228.156 325.691 229.523 324.994C230.883 324.29 232.086 323.798 233.132 323.518C235.675 322.834 237.763 323.309 239.396 324.943C240.702 326.248 241.235 327.766 240.996 329.495C240.757 331.224 239.779 332.947 238.064 334.662C236.854 335.872 235.541 336.754 234.127 337.307C232.712 337.847 231.379 337.991 230.128 337.738C228.877 337.471 227.76 336.846 226.776 335.862L230.384 332.253C231.184 333.053 231.98 333.439 232.773 333.411C233.566 333.37 234.427 332.885 235.357 331.956C235.952 331.361 236.293 330.766 236.382 330.172C236.471 329.563 236.283 329.027 235.818 328.562Z" fill="#FF5454"/>
<path d="M246.446 308.973L242.714 299.746L246.6 295.86L251.357 310.235L256.719 315.597L253.069 319.247L247.707 313.884L233.343 309.117L237.209 305.252L246.446 308.973Z" fill="#FF5454"/>
<path d="M256.612 285.848L270.33 292.902L263.266 279.194L268.003 274.457L282.931 289.385L279.322 292.994L275.836 289.508L269.049 282.024L276.062 296.254L273.683 298.633L259.432 291.62L266.927 298.417L270.412 301.903L266.814 305.502L251.886 290.574L256.612 285.848Z" fill="#FF5454"/>
<path d="M279.226 263.235L292.943 270.289L285.879 256.581L290.616 251.844L305.544 266.772L301.935 270.381L298.449 266.895L291.662 259.411L298.675 273.641L296.296 276.02L282.045 269.007L289.54 275.804L293.025 279.29L289.427 282.889L274.499 267.961L279.226 263.235Z" fill="#FF5454"/>
<path d="M314.972 244.692L309.313 250.351L312.87 253.909L319.555 247.224L322.323 249.993L312.04 260.276L297.112 245.348L307.416 235.044L310.194 237.823L303.489 244.528L306.637 247.675L312.296 242.016L314.972 244.692Z" fill="#FF5454"/>
<path d="M327.763 220.254L323.283 224.734L335.432 236.884L331.833 240.482L319.684 228.333L315.286 232.731L312.507 229.953L324.985 217.476L327.763 220.254Z" fill="#FF5454"/>
<path d="M345.916 215.86L343.968 217.808L349.238 223.078L345.64 226.676L330.712 211.748L336.587 205.874C338.357 204.103 340.134 203.112 341.918 202.9C343.702 202.689 345.311 203.3 346.747 204.736C347.786 205.775 348.435 206.848 348.695 207.955C348.961 209.055 348.859 210.265 348.387 211.584L357.522 214.486L357.676 214.64L353.821 218.495L345.916 215.86ZM341.19 215.029L343.466 212.753C344.15 212.07 344.484 211.379 344.471 210.682C344.457 209.971 344.129 209.295 343.487 208.652C342.844 208.01 342.167 207.682 341.457 207.668C340.739 207.647 340.042 207.976 339.365 208.652L337.089 210.928L341.19 215.029Z" fill="#FF5454"/>
<path d="M360.061 195.359L356.329 186.131L360.215 182.246L364.972 196.62L370.334 201.982L366.684 205.632L361.322 200.27L346.958 195.502L350.823 191.637L360.061 195.359Z" fill="#FF5454"/>
<path d="M176.491 82.4734C175.965 81.9471 175.742 81.349 175.824 80.6792C175.9 80.0162 176.248 79.0593 176.87 77.8085C177.492 76.5577 177.954 75.488 178.254 74.5994C179.239 71.7151 178.9 69.4424 177.239 67.7815C176.412 66.9545 175.445 66.4657 174.338 66.3154C173.217 66.165 172.041 66.3564 170.811 66.8895C169.574 67.4158 168.405 68.2292 167.305 69.3296C166.231 70.4027 165.462 71.5544 164.998 72.7847C164.526 74.0219 164.41 75.2317 164.649 76.4141C164.882 77.5898 165.452 78.6321 166.361 79.5412L169.95 75.9528C169.341 75.3445 169.058 74.6849 169.099 73.974C169.133 73.27 169.468 72.6002 170.103 71.9645C170.746 71.322 171.399 70.9564 172.062 70.8675C172.711 70.7787 173.254 70.953 173.692 71.3904C174.075 71.7732 174.218 72.3268 174.122 73.0513C174.02 73.769 173.62 74.8113 172.923 76.1783C172.219 77.5385 171.727 78.7415 171.447 79.7872C170.763 82.3299 171.238 84.418 172.872 86.0516C174.177 87.357 175.695 87.8902 177.424 87.651C179.153 87.4117 180.875 86.4343 182.591 84.7187C183.801 83.5089 184.683 82.1966 185.236 80.7817C185.776 79.3669 185.92 78.0341 185.667 76.7832C185.4 75.5324 184.775 74.4149 183.791 73.4307L180.182 77.0396C180.981 77.8393 181.368 78.6355 181.34 79.4284C181.299 80.2213 180.814 81.0825 179.884 82.012C179.29 82.6067 178.695 82.9484 178.1 83.0373C177.492 83.1262 176.956 82.9382 176.491 82.4734Z" fill="#30D6E0"/>
<path d="M156.902 93.1012L147.675 89.3693L143.789 93.255L158.163 98.0122L163.525 103.374L167.175 99.7244L161.813 94.3623L157.046 79.9984L153.181 83.8637L156.902 93.1012Z" fill="#30D6E0"/>
<path d="M133.777 103.268L140.83 116.986L127.123 109.922L122.386 114.658L137.314 129.586L140.923 125.977L137.437 122.491L129.952 115.704L144.183 122.717L146.562 120.338L139.549 106.087L146.346 113.582L149.832 117.068L153.431 113.469L138.503 98.5412L133.777 103.268Z" fill="#30D6E0"/>
<path d="M111.164 125.881L118.217 139.599L104.51 132.535L99.773 137.271L114.701 152.199L118.31 148.59L114.824 145.104L107.339 138.317L121.57 145.33L123.949 142.951L116.936 128.7L123.733 136.195L127.219 139.681L130.818 136.082L115.89 121.154L111.164 125.881Z" fill="#30D6E0"/>
<path d="M92.6208 161.627L98.2802 155.968L101.838 159.525L95.1532 166.21L97.9214 168.978L108.205 158.695L93.277 143.767L82.9731 154.071L85.7516 156.85L92.4568 150.144L95.6043 153.292L89.9449 158.951L92.6208 161.627Z" fill="#30D6E0"/>
<path d="M68.1828 174.418L72.6632 169.938L84.8124 182.087L88.4111 178.489L76.2618 166.339L80.6602 161.941L77.8817 159.163L65.4044 171.64L68.1828 174.418Z" fill="#30D6E0"/>
<path d="M63.7886 192.572L65.7365 190.624L71.0064 195.893L74.605 192.295L59.6773 177.367L53.8026 183.242C52.0323 185.012 51.0412 186.789 50.8293 188.573C50.6174 190.357 51.2292 191.967 52.6645 193.402C53.7035 194.441 54.7766 195.09 55.8838 195.35C56.9843 195.617 58.1941 195.514 59.5132 195.042L62.4147 204.177L62.5685 204.331L66.4235 200.476L63.7886 192.572ZM62.9581 187.845L60.682 190.121C59.9985 190.805 59.3082 191.14 58.611 191.126C57.9002 191.112 57.2235 190.784 56.581 190.142C55.9385 189.499 55.6104 188.823 55.5968 188.112C55.5762 187.394 55.9043 186.697 56.581 186.02L58.8571 183.744L62.9581 187.845Z" fill="#30D6E0"/>
<path d="M43.2875 206.716L34.0602 202.984L30.1745 206.87L44.5486 211.627L49.9107 216.989L53.5606 213.339L48.1985 207.977L43.4311 193.613L39.5659 197.478L43.2875 206.716Z" fill="#30D6E0"/>
<path d="M80.6454 244.842C81.1717 244.316 81.3939 243.718 81.3118 243.048C81.2366 242.385 80.8881 241.428 80.2661 240.177C79.6441 238.927 79.1827 237.857 78.882 236.968C77.8977 234.084 78.2361 231.811 79.897 230.15C80.724 229.323 81.6912 228.835 82.7985 228.684C83.9194 228.534 85.095 228.725 86.3253 229.258C87.5625 229.785 88.7313 230.598 89.8317 231.699C90.9048 232.772 91.6737 233.923 92.1385 235.154C92.6101 236.391 92.7263 237.601 92.4871 238.783C92.2547 239.959 91.684 241.001 90.7749 241.91L87.1865 238.322C87.7949 237.713 88.0785 237.054 88.0375 236.343C88.0033 235.639 87.6684 234.969 87.0328 234.333C86.3903 233.691 85.7375 233.325 85.0745 233.236C84.4252 233.148 83.8818 233.322 83.4444 233.759C83.0616 234.142 82.9181 234.696 83.0138 235.42C83.1163 236.138 83.5161 237.18 84.2133 238.547C84.9173 239.907 85.4094 241.11 85.6897 242.156C86.3732 244.699 85.8981 246.787 84.2646 248.42C82.9591 249.726 81.4417 250.259 79.7124 250.02C77.9832 249.781 76.2607 248.803 74.5451 247.088C73.3353 245.878 72.4536 244.565 71.9 243.151C71.36 241.736 71.2165 240.403 71.4694 239.152C71.7359 237.901 72.3613 236.784 73.3456 235.8L76.9545 239.408C76.1548 240.208 75.7686 241.004 75.796 241.797C75.837 242.59 76.3223 243.451 77.2518 244.381C77.8465 244.976 78.4411 245.317 79.0358 245.406C79.6441 245.495 80.1806 245.307 80.6454 244.842Z" fill="white"/>
<path d="M112.649 270.468C111.268 271.849 109.833 272.826 108.342 273.401C106.859 273.968 105.403 274.159 103.975 273.975L104.477 278.291L100.366 277.953L99.7406 272.16C99.3988 271.9 99.0776 271.62 98.7769 271.319C97.5055 270.048 96.6717 268.626 96.2752 267.054C95.8788 265.482 95.9506 263.873 96.4905 262.225C97.0373 260.585 98.0113 259.044 99.4125 257.601L100.202 256.812C101.671 255.342 103.23 254.317 104.877 253.736C106.531 253.162 108.158 253.066 109.757 253.449C111.364 253.839 112.809 254.676 114.094 255.961C115.359 257.225 116.186 258.654 116.575 260.247C116.965 261.839 116.876 263.466 116.309 265.127C115.755 266.788 114.764 268.339 113.335 269.781L112.649 270.468ZM109.614 266.183C111.097 264.7 111.972 263.326 112.238 262.061C112.519 260.797 112.197 259.703 111.275 258.78C110.325 257.83 109.231 257.495 107.994 257.776C106.757 258.056 105.403 258.924 103.934 260.38L103.247 261.067C101.777 262.536 100.892 263.907 100.592 265.178C100.298 266.443 100.629 267.553 101.586 268.51C102.502 269.426 103.589 269.74 104.846 269.453C106.111 269.173 107.471 268.312 108.927 266.87L109.614 266.183Z" fill="white"/>
<path d="M144.672 286.949L134.902 296.72C133.794 297.827 132.598 298.552 131.313 298.893C130.035 299.228 128.743 299.167 127.438 298.709C126.132 298.251 124.878 297.42 123.675 296.217C121.857 294.399 120.897 292.496 120.794 290.507C120.691 288.518 121.45 286.693 123.07 285.032L132.913 275.189L136.532 278.809L126.617 288.723C125.025 290.397 124.967 291.973 126.443 293.449C127.188 294.194 127.957 294.553 128.75 294.526C129.543 294.498 130.401 294.023 131.323 293.101L141.074 283.351L144.672 286.949Z" fill="white"/>
<path d="M153.751 320.306L148.819 315.374L145.169 317.302L141.325 313.457L161.727 304.004L165.11 307.387L155.699 327.831L151.833 323.966L153.751 320.306ZM152.459 313.457L155.668 316.666L159.236 309.879L152.459 313.457Z" fill="white"/>
<path d="M178.321 339.913L176.373 337.965L171.103 343.235L167.504 339.637L182.432 324.709L188.307 330.584C190.077 332.354 191.068 334.131 191.28 335.915C191.492 337.699 190.88 339.309 189.445 340.744C188.406 341.783 187.333 342.432 186.225 342.692C185.125 342.958 183.915 342.856 182.596 342.384L179.695 351.519L179.541 351.673L175.686 347.818L178.321 339.913ZM179.151 335.187L181.427 337.463C182.111 338.147 182.801 338.482 183.498 338.468C184.209 338.454 184.886 338.126 185.528 337.484C186.171 336.841 186.499 336.164 186.513 335.454C186.533 334.736 186.205 334.039 185.528 333.362L183.252 331.086L179.151 335.187Z" fill="white"/>
<path d="M207.494 366.975L201.835 361.315L198.277 364.873L204.962 371.558L202.194 374.326L191.91 364.043L206.838 349.115L217.142 359.419L214.363 362.197L207.658 355.492L204.511 358.64L210.17 364.299L207.494 366.975Z" fill="white"/>
<path d="M202 11.4534L352.798 162.252L322.256 192.793L171.458 41.9948L202 11.4534Z" fill="#FF5454"/>
<path d="M316.975 164.304C317.501 163.778 318.099 163.555 318.769 163.638C319.432 163.713 320.389 164.061 321.64 164.683C322.89 165.305 323.96 165.767 324.849 166.067C327.733 167.052 330.006 166.713 331.667 165.052C332.494 164.225 332.982 163.258 333.133 162.151C333.283 161.03 333.092 159.854 332.559 158.624C332.032 157.387 331.219 156.218 330.118 155.118C329.045 154.045 327.894 153.276 326.663 152.811C325.426 152.339 324.216 152.223 323.034 152.462C321.858 152.695 320.816 153.265 319.907 154.174L323.495 157.763C324.104 157.154 324.763 156.871 325.474 156.912C326.178 156.946 326.848 157.281 327.484 157.917C328.126 158.559 328.492 159.212 328.581 159.875C328.669 160.524 328.495 161.068 328.058 161.505C327.675 161.888 327.121 162.031 326.397 161.936C325.679 161.833 324.637 161.433 323.27 160.736C321.91 160.032 320.707 159.54 319.661 159.26C317.118 158.576 315.03 159.051 313.397 160.685C312.091 161.99 311.558 163.508 311.797 165.237C312.036 166.966 313.014 168.689 314.729 170.404C315.939 171.614 317.252 172.496 318.666 173.049C320.081 173.589 321.414 173.733 322.665 173.48C323.916 173.213 325.033 172.588 326.017 171.604L322.409 167.995C321.609 168.795 320.813 169.181 320.02 169.153C319.227 169.112 318.366 168.627 317.436 167.698C316.841 167.103 316.5 166.508 316.411 165.914C316.322 165.305 316.51 164.769 316.975 164.304Z" fill="white"/>
<path d="M291.349 132.301C289.968 133.681 288.991 135.117 288.416 136.607C287.849 138.09 287.658 139.546 287.842 140.974L283.526 140.472L283.864 144.583L289.657 145.209C289.917 145.55 290.197 145.872 290.498 146.172C291.769 147.444 293.191 148.278 294.763 148.674C296.335 149.071 297.944 148.999 299.592 148.459C301.232 147.912 302.773 146.938 304.216 145.537L305.005 144.747C306.475 143.278 307.5 141.719 308.081 140.072C308.655 138.418 308.751 136.791 308.368 135.192C307.978 133.586 307.141 132.14 305.856 130.855C304.592 129.591 303.163 128.764 301.57 128.374C299.978 127.984 298.351 128.073 296.69 128.641C295.029 129.194 293.478 130.185 292.036 131.614L291.349 132.301ZM295.634 135.336C297.117 133.852 298.491 132.977 299.756 132.711C301.02 132.431 302.114 132.752 303.037 133.675C303.987 134.625 304.322 135.718 304.041 136.955C303.761 138.193 302.893 139.546 301.437 141.015L300.75 141.702C299.281 143.172 297.91 144.057 296.639 144.358C295.374 144.652 294.264 144.32 293.307 143.363C292.391 142.447 292.077 141.361 292.364 140.103C292.644 138.838 293.505 137.478 294.947 136.022L295.634 135.336Z" fill="white"/>
<path d="M274.868 100.277L265.097 110.048C263.99 111.155 263.265 112.351 262.924 113.636C262.589 114.914 262.65 116.206 263.108 117.512C263.566 118.817 264.397 120.071 265.6 121.274C267.418 123.092 269.321 124.053 271.31 124.155C273.299 124.258 275.124 123.499 276.785 121.879L286.628 112.037L283.008 108.418L273.094 118.332C271.42 119.924 269.844 119.983 268.368 118.506C267.623 117.761 267.264 116.992 267.291 116.199C267.319 115.406 267.794 114.549 268.716 113.626L278.467 103.876L274.868 100.277Z" fill="white"/>
<path d="M241.511 91.1987L246.443 96.1302L244.515 99.7801L248.36 103.625L257.813 83.2222L254.43 79.8388L233.986 89.2507L237.851 93.1159L241.511 91.1987ZM248.36 92.4905L245.151 89.2815L251.938 85.7136L248.36 92.4905Z" fill="white"/>
<path d="M221.904 66.6286L223.852 68.5766L218.582 73.8464L222.18 77.4451L237.108 62.5174L231.233 56.6426C229.463 54.8724 227.686 53.8813 225.902 53.6694C224.118 53.4575 222.508 54.0692 221.073 55.5046C220.034 56.5435 219.385 57.6166 219.125 58.7239C218.859 59.8244 218.961 61.0342 219.433 62.3533L210.298 65.2548L210.144 65.4086L213.999 69.2635L221.904 66.6286ZM226.63 65.7982L224.354 63.5221C223.67 62.8386 223.335 62.1483 223.349 61.4511C223.363 60.7402 223.691 60.0636 224.333 59.4211C224.976 58.7786 225.653 58.4505 226.363 58.4368C227.081 58.4163 227.778 58.7444 228.455 59.4211L230.731 61.6972L226.63 65.7982Z" fill="white"/>
<path d="M194.842 37.4552L200.502 43.1146L196.944 46.6722L190.259 39.9876L187.491 42.7558L197.774 53.0391L212.702 38.1114L202.398 27.8075L199.62 30.586L206.325 37.2911L203.177 40.4387L197.518 34.7793L194.842 37.4552Z" fill="white"/>
<path fill-rule="evenodd" clip-rule="evenodd" d="M202 15.2707L15.2706 202L202 388.729L388.729 202L202 15.2707ZM7.63525 202L202 396.364L396.364 202L202 7.63535L7.63525 202Z" fill="black"/>
<path fill-rule="evenodd" clip-rule="evenodd" d="M0 202L202 -1.28236e-05L404 202L202 404L0 202ZM7.63536 202L202 396.364L396.364 202L202 7.63535L7.63536 202Z" fill="white"/>
<path d="M85.91 431.844C85.91 431.333 85.728 430.935 85.3641 430.65C85.0068 430.364 84.375 430.069 83.4685 429.763C82.5621 429.458 81.821 429.162 81.2454 428.877C79.3729 427.954 78.4367 426.686 78.4367 425.073C78.4367 424.27 78.6683 423.563 79.1314 422.952C79.6012 422.334 80.2628 421.856 81.1164 421.518C81.9699 421.173 82.9293 421 83.9945 421C85.0333 421 85.9629 421.186 86.7834 421.558C87.6104 421.929 88.2522 422.461 88.7088 423.151C89.1653 423.835 89.3936 424.618 89.3936 425.501H85.9199C85.9199 424.91 85.738 424.452 85.3741 424.127C85.0168 423.802 84.5305 423.639 83.9151 423.639C83.2932 423.639 82.8003 423.778 82.4363 424.057C82.0791 424.329 81.9004 424.678 81.9004 425.103C81.9004 425.475 82.0989 425.813 82.4959 426.119C82.8929 426.417 83.5909 426.729 84.59 427.055C85.5891 427.373 86.4095 427.718 87.0513 428.09C88.6128 428.993 89.3936 430.238 89.3936 431.825C89.3936 433.093 88.9172 434.088 87.9644 434.812C87.0116 435.536 85.7049 435.897 84.0442 435.897C82.873 435.897 81.8111 435.688 80.8583 435.27C79.9122 434.845 79.1976 434.268 78.7146 433.537C78.2382 432.8 78 431.954 78 430.998H81.4935C81.4935 431.775 81.692 432.349 82.089 432.721C82.4926 433.086 83.1443 433.269 84.0442 433.269C84.6198 433.269 85.073 433.146 85.4038 432.9C85.7413 432.648 85.91 432.296 85.91 431.844Z" fill="white"/>
<path d="M107.502 428.747C107.502 430.089 107.281 431.26 106.837 432.263C106.394 433.259 105.782 434.059 105.001 434.663L107.333 436.515L105.18 438.347L102.073 435.838C101.782 435.878 101.491 435.897 101.2 435.897C99.9694 435.897 98.8776 435.612 97.9249 435.041C96.9721 434.47 96.2277 433.654 95.6918 432.591C95.1625 431.529 94.8879 430.308 94.868 428.927V428.16C94.868 426.733 95.1261 425.478 95.6422 424.396C96.1649 423.314 96.9059 422.477 97.8653 421.886C98.8313 421.295 99.9363 421 101.18 421C102.404 421 103.496 421.292 104.455 421.876C105.415 422.461 106.159 423.294 106.688 424.376C107.224 425.451 107.496 426.686 107.502 428.08V428.747ZM103.959 428.14C103.959 426.699 103.718 425.607 103.235 424.864C102.758 424.114 102.073 423.739 101.18 423.739C100.26 423.739 99.5691 424.107 99.1059 424.844C98.6427 425.581 98.4079 426.66 98.4012 428.08V428.747C98.4012 430.175 98.6361 431.27 99.1059 432.034C99.5757 432.791 100.274 433.169 101.2 433.169C102.087 433.169 102.765 432.794 103.235 432.044C103.711 431.293 103.952 430.215 103.959 428.807V428.14Z" fill="white"/>
<path d="M124.678 421.199V430.689C124.678 431.765 124.45 432.698 123.993 433.488C123.537 434.271 122.882 434.868 122.028 435.28C121.174 435.692 120.165 435.897 119.001 435.897C117.241 435.897 115.855 435.439 114.843 434.523C113.83 433.607 113.314 432.352 113.294 430.759V421.199H116.798V430.829C116.837 432.415 117.572 433.209 119.001 433.209C119.722 433.209 120.268 433.01 120.639 432.611C121.009 432.213 121.194 431.566 121.194 430.669V421.199H124.678Z" fill="white"/>
<path d="M138.916 432.99H134.142L133.308 435.698H129.587L134.886 421.199H138.162L143.501 435.698H139.76L138.916 432.99ZM134.976 430.291H138.082L136.524 425.262L134.976 430.291Z" fill="white"/>
<path d="M153.998 430.58H152.112V435.698H148.628V421.199H154.315C156.029 421.199 157.369 421.581 158.335 422.344C159.301 423.108 159.784 424.187 159.784 425.581C159.784 426.59 159.579 427.426 159.168 428.09C158.765 428.754 158.129 429.292 157.263 429.703L160.28 435.549V435.698H156.548L153.998 430.58ZM152.112 427.881H154.315C154.977 427.881 155.473 427.709 155.804 427.363C156.141 427.011 156.31 426.523 156.31 425.899C156.31 425.275 156.141 424.787 155.804 424.436C155.466 424.077 154.97 423.898 154.315 423.898H152.112V427.881Z" fill="white"/>
<path d="M174.915 429.554H169.436V433.01H175.907V435.698H165.953V421.199H175.927V423.898H169.436V426.955H174.915V429.554Z" fill="white"/>
<path d="M197.972 431.844C197.972 431.333 197.79 430.935 197.426 430.65C197.069 430.364 196.437 430.069 195.53 429.763C194.624 429.458 193.883 429.162 193.307 428.877C191.435 427.954 190.499 426.686 190.499 425.073C190.499 424.27 190.73 423.563 191.193 422.952C191.663 422.334 192.325 421.856 193.178 421.518C194.032 421.173 194.991 421 196.056 421C197.095 421 198.025 421.186 198.845 421.558C199.672 421.929 200.314 422.461 200.771 423.151C201.227 423.835 201.456 424.618 201.456 425.501H197.982C197.982 424.91 197.8 424.452 197.436 424.127C197.079 423.802 196.592 423.639 195.977 423.639C195.355 423.639 194.862 423.778 194.498 424.057C194.141 424.329 193.962 424.678 193.962 425.103C193.962 425.475 194.161 425.813 194.558 426.119C194.955 426.417 195.653 426.729 196.652 427.055C197.651 427.373 198.471 427.718 199.113 428.09C200.675 428.993 201.456 430.238 201.456 431.825C201.456 433.093 200.979 434.088 200.026 434.812C199.074 435.536 197.767 435.897 196.106 435.897C194.935 435.897 193.873 435.688 192.92 435.27C191.974 434.845 191.26 434.268 190.777 433.537C190.3 432.8 190.062 431.954 190.062 430.998H193.555C193.555 431.775 193.754 432.349 194.151 432.721C194.555 433.086 195.206 433.269 196.106 433.269C196.682 433.269 197.135 433.146 197.466 432.9C197.803 432.648 197.972 432.296 197.972 431.844Z" fill="white"/>
<path d="M212.597 427.493L215.257 421.199H219.018L214.364 430.49V435.698H210.83V430.49L206.186 421.199H209.927L212.597 427.493Z" fill="white"/>
<path d="M228.711 421.199L231.936 431.287L235.152 421.199H239.737V435.698H236.244V432.313L236.581 425.382L233.088 435.698H230.785L227.282 425.372L227.619 432.313V435.698H224.135V421.199H228.711Z" fill="white"/>
<path d="M250.601 421.199L253.826 431.287L257.042 421.199H261.627V435.698H258.134V432.313L258.471 425.382L254.978 435.698H252.675L249.172 425.372L249.509 432.313V435.698H246.025V421.199H250.601Z" fill="white"/>
<path d="M276.877 429.554H271.399V433.01H277.87V435.698H267.915V421.199H277.89V423.898H271.399V426.955H276.877V429.554Z" fill="white"/>
<path d="M294.897 423.898H290.56V435.698H287.076V423.898H282.818V421.199H294.897V423.898Z" fill="white"/>
<path d="M305.81 430.58H303.924V435.698H300.441V421.199H306.128C307.841 421.199 309.181 421.581 310.147 422.344C311.113 423.108 311.596 424.187 311.596 425.581C311.596 426.59 311.391 427.426 310.981 428.09C310.577 428.754 309.942 429.292 309.075 429.703L312.092 435.549V435.698H308.361L305.81 430.58ZM303.924 427.881H306.128C306.789 427.881 307.285 427.709 307.616 427.363C307.954 427.011 308.122 426.523 308.122 425.899C308.122 425.275 307.954 424.787 307.616 424.436C307.279 424.077 306.783 423.898 306.128 423.898H303.924V427.881Z" fill="white"/>
<path d="M322.579 427.493L325.239 421.199H329L324.345 430.49V435.698H320.812V430.49L316.167 421.199H319.909L322.579 427.493Z" fill="white"/>
<path d="M171.731 455.947C171.731 455.436 171.549 455.037 171.185 454.752C170.828 454.467 170.196 454.171 169.29 453.866C168.383 453.56 167.642 453.265 167.066 452.979C165.194 452.057 164.258 450.789 164.258 449.175C164.258 448.372 164.489 447.665 164.952 447.054C165.422 446.437 166.084 445.959 166.937 445.62C167.791 445.275 168.75 445.103 169.816 445.103C170.854 445.103 171.784 445.288 172.604 445.66C173.431 446.032 174.073 446.563 174.53 447.253C174.986 447.937 175.215 448.721 175.215 449.604H171.741C171.741 449.013 171.559 448.555 171.195 448.229C170.838 447.904 170.351 447.741 169.736 447.741C169.114 447.741 168.621 447.881 168.257 448.16C167.9 448.432 167.721 448.78 167.721 449.205C167.721 449.577 167.92 449.916 168.317 450.221C168.714 450.52 169.412 450.832 170.411 451.157C171.41 451.476 172.231 451.821 172.872 452.193C174.434 453.096 175.215 454.34 175.215 455.927C175.215 457.195 174.738 458.191 173.785 458.915C172.833 459.638 171.526 460 169.865 460C168.694 460 167.632 459.791 166.679 459.373C165.733 458.948 165.019 458.37 164.536 457.64C164.059 456.903 163.821 456.057 163.821 455.101H167.314C167.314 455.877 167.513 456.452 167.91 456.823C168.314 457.188 168.965 457.371 169.865 457.371C170.441 457.371 170.894 457.248 171.225 457.003C171.562 456.75 171.731 456.398 171.731 455.947Z" fill="white"/>
<path d="M184.808 446.347V449.026H186.574V451.356H184.808V456.286C184.808 456.691 184.881 456.973 185.026 457.132C185.172 457.291 185.46 457.371 185.89 457.371C186.22 457.371 186.498 457.351 186.723 457.311V459.711C186.121 459.904 185.493 460 184.838 460C183.686 460 182.836 459.728 182.287 459.183C181.738 458.639 181.463 457.813 181.463 456.704V451.356H180.094V449.026H181.463V446.347H184.808Z" fill="white"/>
<path d="M198.361 458.636C197.653 459.545 196.697 460 195.493 460C194.315 460 193.422 459.658 192.813 458.974C192.211 458.284 191.91 457.295 191.91 456.007V449.026H195.255V456.027C195.255 456.949 195.701 457.411 196.594 457.411C197.362 457.411 197.908 457.135 198.232 456.584V449.026H201.596V459.801H198.46L198.361 458.636Z" fill="white"/>
<path d="M207.081 454.334C207.081 452.628 207.448 451.283 208.182 450.301C208.917 449.318 209.942 448.827 211.259 448.827C212.219 448.827 213.026 449.205 213.681 449.962V444.505H217.035V459.801H214.028L213.859 458.646C213.171 459.549 212.298 460 211.239 460C209.962 460 208.95 459.509 208.202 458.526C207.455 457.544 207.081 456.146 207.081 454.334ZM210.425 454.543C210.425 456.455 210.981 457.411 212.093 457.411C212.834 457.411 213.363 457.099 213.681 456.475V452.372C213.376 451.735 212.854 451.416 212.113 451.416C211.081 451.416 210.521 452.253 210.435 453.925L210.425 454.543Z" fill="white"/>
<path d="M226.529 459.801H223.175V449.026H226.529V459.801ZM222.976 446.248C222.976 445.77 223.148 445.378 223.492 445.073C223.836 444.767 224.283 444.615 224.832 444.615C225.381 444.615 225.828 444.767 226.172 445.073C226.516 445.378 226.688 445.77 226.688 446.248C226.688 446.726 226.516 447.117 226.172 447.423C225.828 447.728 225.381 447.881 224.832 447.881C224.283 447.881 223.836 447.728 223.492 447.423C223.148 447.117 222.976 446.726 222.976 446.248Z" fill="white"/>
<path d="M232.242 454.314C232.242 453.238 232.45 452.282 232.867 451.446C233.284 450.603 233.883 449.955 234.664 449.504C235.444 449.053 236.361 448.827 237.413 448.827C239.021 448.827 240.288 449.328 241.214 450.331C242.14 451.326 242.603 452.684 242.603 454.403V454.523C242.603 456.203 242.137 457.537 241.204 458.526C240.278 459.509 239.021 460 237.433 460C235.904 460 234.677 459.542 233.751 458.626C232.824 457.703 232.325 456.455 232.252 454.881L232.242 454.314ZM235.587 454.523C235.587 455.519 235.742 456.249 236.053 456.714C236.364 457.179 236.824 457.411 237.433 457.411C238.624 457.411 239.232 456.491 239.259 454.652V454.314C239.259 452.382 238.643 451.416 237.413 451.416C236.295 451.416 235.689 452.249 235.597 453.916L235.587 454.523Z" fill="white"/>
</svg>
